<?xml version="1.0" encoding="utf-8"?><svg xmlns="http://www.w3.org/2000/svg" viewBox="0 0 400 400"><path style="fill-rule:evenodd;clip-rule:evenodd;" d="M355.876,375H44.126C33.563,375,25,366.414,25,355.823 V44.177C25,33.586,33.563,25,44.126,25h70.765l50.725,146.088c2.364,6.782,4.636,10.17,6.81,10.17c2.364,0,4.435-2.476,6.213-7.438 l40.488-114.396h66.94c-3.538,15.698-11.08,36.808-2.66,61.453c6.528,18.817,15.114,36.704,19.972,51.825 c6.488,19.828,7.931,42.181,0.616,61.569c-11.705,31.02-38.205,56.111-54.766,69.286l-4.77-1.799 c13.237-13.403,37.569-34.55,47.064-63.333c5.37-16.032,5.82-35.287,0.407-51.637c-5.82-18.895-20.522-37.731-36.772-45.222 l-63.811,169.114c-5.064,13.422-17.731,22.612-32.741,27.173c-14.709,4.667-31.652,4.411-44.771-0.541 c-8.355-3.152-15.099-8.761-18.773-15.263c-3.98-6.611-4.787-14.41-1.862-22.164c4.614-12.227,17.58-21.311,32.29-25.978 c14.825-4.972,31.389-5.535,43.32-1.032c10.443,3.939,10.942,4.823,14.123,7.474l74.524-201.798h-16.138l-69.856,186.724 L91.42,44.125H53.688c-5.282,0-9.563,4.282-9.563,9.563v292.623c0,5.281,4.281,9.563,9.563,9.563h292.624 c5.281,0,9.563-4.282,9.563-9.563V53.688c0-5.281-4.282-9.563-9.563-9.563H137.842L132.104,25h223.772 C366.438,25,375,33.586,375,44.177v311.646C375,366.414,366.438,375,355.876,375z"/></svg>